<svg width="1280" height="720" xmlns="http://www.w3.org/2000/svg" xmlns:xlink="http://www.w3.org/1999/xlink" overflow="hidden"><defs><clipPath id="clip0"><rect x="0" y="0" width="1280" height="720"/></clipPath></defs><g clip-path="url(#clip0)"><rect x="0" y="0" width="1280" height="720" fill="#FFFFFF"/><path d="M766.5 573.667C766.369 566.085 771.344 559.041 781.687 558.5 804.03 557.312 812.542 558.879 827.588 558.5 842.633 558.122 861.122 564.369 877.313 558.5 884.205 558.268 890.588 565.251 892.5 573.667 894.38 602.211 890.218 615.264 892.5 634.333 892.626 642.937 884.727 648.657 877.313 649.5 852.489 654.406 846.904 646.627 827.588 649.5 808.271 652.373 793.215 644.461 781.687 649.5 772.373 650.589 765.711 642.439 766.5 634.333 761.975 618.095 768.609 587.306 766.5 573.667Z" stroke="#FF0000" stroke-width="1.33333" stroke-miterlimit="8" fill="none" fill-rule="evenodd"/><path d="M779.5 597.899C779.151 593.179 781.812 590.04 786.834 590.5 793.394 588.992 806.486 592.295 816.167 590.5 821.133 591.221 823.212 593.637 823.5 597.899 826.083 610.265 821.909 613.624 823.5 629.101 823.965 633.621 819.489 636.997 816.167 636.5 807.963 639.036 800.384 635.541 786.834 636.5 782.543 636.342 779.304 632.264 779.5 629.101 776.476 619.92 782.066 613.152 779.5 597.899Z" stroke="#2F528F" stroke-width="1.33333" stroke-miterlimit="8" fill="none" fill-rule="evenodd"/><path d="M835.5 575.833C835.047 571.549 839.081 568.535 842.833 568.5 850.776 566.847 859.965 571.856 872.167 568.5 876.246 568.324 879.562 571.416 879.5 575.833 881.22 583.247 878.421 594.184 879.5 606.167 879.411 610.021 876.03 613.894 872.167 613.5 865.53 615.098 854.511 611.32 842.833 613.5 839.594 613.755 836.257 609.611 835.5 606.167 832.837 592.458 835.857 590.488 835.5 575.833Z" stroke="#2F528F" stroke-width="1.33333" stroke-miterlimit="8" fill="none" fill-rule="evenodd"/><text font-family="Calibri,Calibri_MSFontService,sans-serif" font-weight="400" font-size="19" transform="translate(1034.93 657)">RS<tspan font-size="16" x="-194.47" y="-65">CTN</tspan><tspan font-size="16" x="-249.672" y="-43">CTN</tspan></text><path d="M914.5 494.667C913.752 485.904 923.78 479.793 929.667 479.5 940.762 479.016 954.118 483.725 975.587 479.5 997.055 475.275 1001.87 482.786 1025.33 479.5 1031.73 480.36 1040.88 485.938 1040.5 494.667 1046.67 511.023 1040.48 533.281 1040.5 555.333 1040.93 561.945 1033.79 569.502 1025.33 570.5 1014.67 571.605 996.148 567.735 975.587 570.5 955.026 573.266 940.805 567.876 929.667 570.5 920.555 572.024 916.143 563.337 914.5 555.333 912.423 541.367 914.613 508.84 914.5 494.667Z" stroke="#FF0000" stroke-width="1.33333" stroke-miterlimit="8" fill="none" fill-rule="evenodd"/><path d="M927.5 518.833C927.047 514.549 931.081 511.535 934.833 511.5 942.776 509.847 951.965 514.856 964.167 511.5 968.246 511.324 971.562 514.416 971.5 518.833 974.106 533.507 970.288 538.348 971.5 550.167 971.411 554.021 968.03 557.894 964.167 557.5 957.53 559.098 946.511 555.32 934.833 557.5 931.594 557.755 928.257 553.611 927.5 550.167 925.2 535.757 930.842 531.233 927.5 518.833Z" stroke="#2F528F" stroke-width="1.33333" stroke-miterlimit="8" fill="none" fill-rule="evenodd"/><path d="M983.5 496.833C983.047 492.549 987.081 489.535 990.833 489.5 998.776 487.847 1007.96 492.856 1020.17 489.5 1024.25 489.324 1027.56 492.416 1027.5 496.833 1029.22 504.247 1026.42 515.184 1027.5 527.167 1027.41 531.021 1024.03 534.894 1020.17 534.5 1013.53 536.098 1002.51 532.32 990.833 534.5 987.594 534.755 984.257 530.611 983.5 527.167 980.837 513.458 983.857 511.488 983.5 496.833Z" stroke="#2F528F" stroke-width="1.33333" stroke-miterlimit="8" fill="none" fill-rule="evenodd"/><text font-family="Calibri,Calibri_MSFontService,sans-serif" font-weight="400" font-size="16" transform="translate(996.286 568)">POD</text><path d="M746.5 500.501C745.514 484.308 761.815 467.216 779.503 467.5 790.607 462.978 806.125 471.413 828.712 467.5 851.299 463.587 861.889 467.85 872.741 467.5 883.593 467.15 909.154 472.041 929.72 467.5 950.285 462.959 958.801 472.661 973.748 467.5 988.696 462.339 1023.15 469.171 1038.5 467.5 1055.87 469.532 1070.98 482.177 1071.5 500.501 1073 510.678 1071.37 534.284 1071.5 543.18 1071.63 552.076 1068.93 568.099 1071.5 583.22 1074.07 598.34 1069.78 608.777 1071.5 632.499 1072.39 651.394 1056.17 666.163 1038.5 665.5 1026.88 670.243 1011.6 662.036 986.698 665.5 961.799 668.964 953.207 663.134 929.72 665.5 906.233 667.867 898.427 662.42 880.511 665.5 862.594 668.58 806.061 660.638 779.503 665.5 762.144 667.528 742.95 648.682 746.5 632.499 743.765 611.176 749.608 606.854 746.5 589.82 743.392 572.786 747.573 559.528 746.5 549.78 745.427 540.033 752.413 519.089 746.5 500.501Z" stroke="#0D0D0D" stroke-width="1.33333" stroke-miterlimit="8" fill="none" fill-rule="evenodd"/><path d="M733.5 486.668C730.545 468.908 757.208 441.209 776.732 443.5 789.082 440.369 803.258 443.858 827.564 443.5 851.87 443.142 853.164 445.85 873.045 443.5 892.926 441.15 919.956 443.978 931.903 443.5 943.85 443.022 964.836 445.228 977.384 443.5 989.932 441.772 1028.5 446.437 1044.27 443.5 1066.22 448.053 1084.92 462.344 1087.5 486.668 1093.02 513.455 1084.88 520.379 1087.5 542.496 1090.12 564.613 1085.76 581.635 1087.5 594.871 1089.24 608.107 1084.71 634.269 1087.5 659.333 1090.24 685.232 1063.9 707.577 1044.27 702.5 1022.5 707.094 1006.26 698.4 990.761 702.5 975.263 706.6 952.122 697.654 931.903 702.5 911.684 707.346 906.435 696.913 881.071 702.5 855.707 708.087 812.481 701.862 776.732 702.5 753.811 704.729 728.623 680.371 733.5 659.333 729.978 639.981 735.107 615.158 733.5 603.504 731.894 591.851 738.828 564.993 733.5 551.129 728.172 537.265 738.526 517.524 733.5 486.668Z" stroke="#00B050" stroke-width="1.33333" stroke-miterlimit="8" fill="none" fill-rule="evenodd"/><text font-family="Calibri,Calibri_MSFontService,sans-serif" font-weight="400" font-size="21" transform="translate(1041.23 693)">DP<tspan font-size="16" x="-189.059" y="-52">POD</tspan><tspan font-size="24" x="-138.201" y="-1">DB</tspan><tspan font-size="16" x="-105.039" y="-156">CTN</tspan><tspan font-size="16" x="-50.7021" y="-179">CTN</tspan></text><path d="M818.5 177.5C818.793 168.671 825.502 164.96 833.687 162.5 854.265 158.565 862.522 162.84 881.5 162.5 900.478 162.16 909.529 163.077 929.313 162.5 937.397 163.826 944.992 170.921 944.5 177.5 950.228 199.537 939.19 216.172 944.5 237.5 942.78 244.861 938.134 253.968 929.313 252.5 911.782 253.804 901.536 251.378 881.5 252.5 861.464 253.622 849.328 248.711 833.687 252.5 825.538 252.368 818.046 245.14 818.5 237.5 817.413 222.573 820.352 195.7 818.5 177.5Z" stroke="#FF0000" stroke-width="1.33333" stroke-miterlimit="8" fill="none" fill-rule="evenodd"/><path d="M831.5 201.833C831.047 197.549 835.081 194.535 838.833 194.5 846.776 192.847 855.965 197.856 868.167 194.5 872.246 194.324 875.562 197.416 875.5 201.833 877.22 209.247 874.421 220.184 875.5 232.167 875.411 236.021 872.03 239.894 868.167 239.5 861.53 241.098 850.511 237.32 838.833 239.5 835.594 239.755 832.257 235.611 831.5 232.167 828.837 218.458 831.857 216.488 831.5 201.833Z" stroke="#2F528F" stroke-width="1.33333" stroke-miterlimit="8" fill="none" fill-rule="evenodd"/><path d="M887.5 178.899C886.846 175.149 890.545 170.722 894.667 171.5 905.696 169.118 912.613 174.404 923.333 171.5 927.14 172.108 929.895 174.067 930.5 178.899 932.904 186.445 928.433 199.044 930.5 210.101 930.162 214.067 926.983 216.424 923.333 217.5 909.328 218.725 905.289 216.747 894.667 217.5 890.798 217.099 886.918 214.33 887.5 210.101 887.475 198.43 890.811 186.865 887.5 178.899Z" stroke="#2F528F" stroke-width="1.33333" stroke-miterlimit="8" fill="none" fill-rule="evenodd"/><text font-family="Calibri,Calibri_MSFontService,sans-serif" font-weight="400" font-size="19" transform="translate(1086.58 260)">RS<tspan font-size="16" x="-194.47" y="-64">CTN</tspan><tspan font-size="16" x="-249.672" y="-43">CTN</tspan></text><path d="M966.5 97.667C966.5 89.2905 973.291 82.5001 981.667 82.5001L1077.33 82.5001C1085.71 82.5001 1092.5 89.2905 1092.5 97.667L1092.5 158.333C1092.5 166.71 1085.71 173.5 1077.33 173.5L981.667 173.5C973.291 173.5 966.5 166.71 966.5 158.333Z" stroke="#FF0000" stroke-width="1.33333" stroke-miterlimit="8" fill="none" fill-rule="evenodd"/><path d="M979.5 122.833C979.047 118.549 983.081 115.535 986.833 115.5 994.776 113.847 1003.96 118.856 1016.17 115.5 1020.25 115.324 1023.56 118.416 1023.5 122.833 1025.22 130.247 1022.42 141.184 1023.5 153.167 1023.41 157.021 1020.03 160.894 1016.17 160.5 1009.53 162.098 998.511 158.32 986.833 160.5 983.594 160.755 980.257 156.611 979.5 153.167 976.837 139.458 979.857 137.488 979.5 122.833Z" stroke="#2F528F" stroke-width="1.33333" stroke-miterlimit="8" fill="none" fill-rule="evenodd"/><path d="M1035.5 99.8987C1035.16 95.1787 1037.76 92.0399 1042.67 92.5001 1049.08 90.9922 1061.87 94.2947 1071.33 92.5001 1076.19 93.221 1078.22 95.6374 1078.5 99.8987 1081.02 112.265 1076.95 115.624 1078.5 131.101 1078.95 135.621 1074.58 138.997 1071.33 138.5 1063.32 141.036 1055.91 137.541 1042.67 138.5 1038.47 138.342 1035.31 134.264 1035.5 131.101 1032.54 121.92 1038.01 115.152 1035.5 99.8987Z" stroke="#2F528F" stroke-width="1.33333" stroke-miterlimit="8" fill="none" fill-rule="evenodd"/><text font-family="Calibri,Calibri_MSFontService,sans-serif" font-weight="400" font-size="16" transform="translate(1047.93 171)">POD</text><path d="M797.5 103.501C798.092 84.1636 812.365 71.0341 830.605 70.5001 851.864 67.5076 871.984 74.2226 882.563 70.5001 893.142 66.7775 908.214 75.9154 931.923 70.5001 955.632 65.0847 960.637 70.8103 976.088 70.5001 991.538 70.1898 1009.51 71.998 1022.85 70.5001 1036.19 69.0021 1075.53 76.8228 1090.4 70.5001 1105.61 68.8364 1124.43 88.4699 1123.5 103.501 1128.54 123.768 1119.01 129.956 1123.5 147.5 1127.99 165.045 1120.71 174.8 1123.5 188.86 1126.29 202.92 1122.84 214.302 1123.5 235.499 1120.05 252.966 1111.58 267.919 1090.4 268.5 1069.71 273.725 1057.25 262.913 1033.24 268.5 1009.23 274.087 998.207 265.811 978.685 268.5 959.163 271.189 943.355 267.626 934.521 268.5 925.687 269.374 897.135 264.905 879.965 268.5 862.795 272.095 842.702 265.325 830.605 268.5 811.483 272.892 796.186 257.45 797.5 235.499 792.808 216.852 800.619 200.576 797.5 188.86 794.381 177.144 801.029 158.676 797.5 147.5 793.971 136.324 797.684 117.744 797.5 103.501Z" stroke="#0D0D0D" stroke-width="1.33333" stroke-miterlimit="8" fill="none" fill-rule="evenodd"/><path d="M785.5 89.6676C788.582 60.0328 805.075 49.1914 828.732 46.5001 852.078 44.9149 856.238 46.5317 882.239 46.5001 908.24 46.4685 917.244 47.8222 933.071 46.5001 948.898 45.1779 961.614 49.2599 978.552 46.5001 995.491 43.7402 1008.02 47.219 1026.71 46.5001 1045.39 45.7811 1070.33 47.5485 1096.27 46.5001 1117.13 44.8668 1139.76 66.7049 1139.5 89.6676 1140.85 109.849 1138.6 130.277 1139.5 147.223 1140.4 164.168 1134.74 187.04 1139.5 201.324 1144.26 215.609 1134.09 249.305 1139.5 262.333 1135.07 285.196 1125.69 304.387 1096.27 305.5 1076.05 309.188 1049.76 300.743 1037.41 305.5 1025.06 310.257 1007.75 300.358 981.228 305.5 954.704 310.643 952.405 300.402 935.747 305.5 919.088 310.598 902.549 303.897 879.564 305.5 856.579 307.103 842.114 299.931 828.732 305.5 804.72 306.214 784.125 290.079 785.5 262.333 779.531 241.813 786.273 217.581 785.5 201.324 784.727 185.067 785.555 170.825 785.5 147.223 785.445 123.62 789.4 103.2 785.5 89.6676Z" stroke="#C00000" stroke-width="1.33333" stroke-miterlimit="8" fill="none" fill-rule="evenodd"/><text font-family="Calibri,Calibri_MSFontService,sans-serif" font-weight="400" font-size="21" transform="translate(1092.88 296)">DP<tspan font-size="16" x="-189.059" y="-51">POD</tspan><tspan font-size="24" x="-165.314" y="-1">Backen</tspan><tspan font-size="24" x="-95.921" y="-1">d</tspan><tspan font-size="16" x="-111.107" y="-154">CTN</tspan><tspan font-size="16" x="-50.7021" y="-179">CTN</tspan></text><path d="M82.5001 177.667C84.4349 168.513 88.7134 162.458 97.6869 162.5 117.781 159.433 130.834 163.334 145.5 162.5 160.167 161.666 177.373 168.098 193.313 162.5 200.288 162.484 209.301 169.409 208.5 177.667 215.577 196.177 203.488 221.925 208.5 238.333 208.678 246.832 201.791 254.732 193.313 253.5 180.223 257.86 168.292 251.622 147.413 253.5 126.534 255.379 109.77 250.183 97.6869 253.5 90.1536 251.465 83.6007 247.674 82.5001 238.333 82.0236 217.16 89.7892 207.543 82.5001 177.667Z" stroke="#FF0000" stroke-width="1.33333" stroke-miterlimit="8" fill="none" fill-rule="evenodd"/><path d="M96.5001 202.738C96.8826 198.03 99.856 196.382 103.834 195.5 110.57 193.086 120.756 195.734 133.167 195.5 137.238 195.413 139.506 198.584 140.5 202.738 142.162 214.751 137.617 225.069 140.5 233.262 140.562 236.65 136.607 240.797 133.167 240.5 121.085 241.95 116.905 238.356 103.834 240.5 100.474 240.931 97.338 237.349 96.5001 233.262 93.2113 219.014 99.6894 215.623 96.5001 202.738Z" stroke="#2F528F" stroke-width="1.33333" stroke-miterlimit="8" fill="none" fill-rule="evenodd"/><path d="M151.5 179.738C151.883 175.03 154.856 173.382 158.834 172.5 165.57 170.086 175.756 172.734 188.167 172.5 192.238 172.413 194.506 175.584 195.5 179.738 197.162 191.751 192.617 202.069 195.5 210.262 195.562 213.65 191.607 217.797 188.167 217.5 176.085 218.95 171.905 215.356 158.834 217.5 155.474 217.931 152.338 214.349 151.5 210.262 148.211 196.014 154.689 192.623 151.5 179.738Z" stroke="#2F528F" stroke-width="1.33333" stroke-miterlimit="8" fill="none" fill-rule="evenodd"/><text font-family="Calibri,Calibri_MSFontService,sans-serif" font-weight="400" font-size="19" transform="translate(351.104 261)">RS<tspan font-size="16" x="-194.47" y="-64">CTN</tspan><tspan font-size="16" x="-249.672" y="-43">CTN</tspan></text><path d="M230.5 98.667C229.752 89.9043 239.78 83.7935 245.667 83.5001 256.762 83.0162 270.118 87.7249 291.587 83.5001 313.055 79.2752 317.87 86.7865 341.333 83.5001 347.726 84.36 356.878 89.9384 356.5 98.667 362.673 115.023 356.478 137.281 356.5 159.333 356.929 165.945 349.792 173.502 341.333 174.5 330.669 175.605 312.148 171.735 291.587 174.5 271.026 177.266 256.805 171.876 245.667 174.5 236.555 176.024 232.143 167.337 230.5 159.333 228.423 145.367 230.613 112.84 230.5 98.667Z" stroke="#FF0000" stroke-width="1.33333" stroke-miterlimit="8" fill="none" fill-rule="evenodd"/><path d="M244.5 123.833C244.047 119.549 248.081 116.535 251.833 116.5 259.776 114.847 268.965 119.856 281.167 116.5 285.246 116.324 288.562 119.416 288.5 123.833 290.22 131.247 287.421 142.184 288.5 154.167 288.411 158.021 285.03 161.894 281.167 161.5 274.53 163.098 263.511 159.32 251.833 161.5 248.594 161.755 245.257 157.611 244.5 154.167 241.837 140.458 244.857 138.488 244.5 123.833Z" stroke="#2F528F" stroke-width="1.33333" stroke-miterlimit="8" fill="none" fill-rule="evenodd"/><path d="M299.5 100.833C299.047 96.5494 303.081 93.5352 306.833 93.5001 314.776 91.8466 323.965 96.8556 336.167 93.5001 340.246 93.3237 343.563 96.416 343.5 100.833 345.22 108.247 342.421 119.184 343.5 131.167 343.411 135.021 340.03 138.894 336.167 138.5 329.53 140.098 318.511 136.32 306.833 138.5 303.594 138.755 300.257 134.611 299.5 131.167 296.837 117.458 299.857 115.488 299.5 100.833Z" stroke="#2F528F" stroke-width="1.33333" stroke-miterlimit="8" fill="none" fill-rule="evenodd"/><text font-family="Calibri,Calibri_MSFontService,sans-serif" font-weight="400" font-size="16" transform="translate(312.461 172)">POD</text><path d="M62.5001 104.501C60.7983 90.1424 77.5542 74.3243 95.5035 71.5001 109.823 71.3002 121.491 72.194 139.532 71.5001 157.574 70.8061 163.446 76.2499 183.561 71.5001 203.676 66.7502 226.218 77.8103 240.54 71.5001 254.862 65.1898 270.871 75.5051 284.569 71.5001 298.266 67.495 319.934 79.6667 354.497 71.5001 376.783 72.0187 386.37 87.6514 387.5 104.501 388.761 121.728 386.844 130.877 387.5 149.82 388.157 168.763 387.207 176.357 387.5 191.18 387.793 206.002 383.699 219.418 387.5 236.499 386.127 255.729 372.952 268.44 354.497 269.5 336.382 272.439 316.732 267.824 300.108 269.5 283.484 271.176 267.65 267.052 248.309 269.5 228.969 271.948 217.603 268.216 191.331 269.5 165.059 270.784 134.112 265.596 95.5035 269.5 76.9728 269.985 61.8207 255.856 62.5001 236.499 61.0225 227.263 63.0738 204.107 62.5001 195.14 61.9263 186.173 63.3594 165.882 62.5001 148.5 61.6407 131.119 64.9536 116.716 62.5001 104.501Z" stroke="#0D0D0D" stroke-width="1.33333" stroke-miterlimit="8" fill="none" fill-rule="evenodd"/><path d="M50.5001 90.6676C52.413 66.5332 72.0762 48.3193 93.6102 47.5001 112.472 43.2248 125.43 50.7836 138.963 47.5001 152.495 44.2165 174.945 49.7836 192.319 47.5001 209.692 45.2165 221.633 51.0701 245.675 47.5001 269.716 43.93 282.091 51.6165 293.695 47.5001 305.299 43.3836 332.058 52.0552 360.39 47.5001 382.314 52.6055 402.327 62.9561 403.5 90.6676 404.314 110.567 400.781 126.446 403.5 148.223 406.219 169.999 400.632 190.454 403.5 209.231 406.368 228.008 397.448 242.922 403.5 263.333 398.73 291.902 385.55 300.399 360.39 306.5 338.633 307.585 334.601 301.144 309.702 306.5 284.802 311.856 282.046 302.958 264.349 306.5 246.653 310.042 228.735 300.835 210.993 306.5 193.252 312.165 182.234 303.423 154.97 306.5 127.705 309.577 109.882 303.567 93.6102 306.5 69.178 306.407 51.0431 293.002 50.5001 263.333 46.3253 241.55 54.1127 230.097 50.5001 202.324 46.8874 174.551 53.6012 164.414 50.5001 141.316 47.3989 118.218 51.3607 104.834 50.5001 90.6676Z" stroke="#0070C0" stroke-width="1.33333" stroke-miterlimit="8" fill="none" fill-rule="evenodd"/><text font-family="Calibri,Calibri_MSFontService,sans-serif" font-weight="400" font-size="21" transform="translate(357.405 297)">DP<tspan font-size="16" x="-189.059" y="-51">POD</tspan><tspan font-size="24" x="-168.851" y="-1">Frontend</tspan><tspan font-size="16" x="-111.107" y="-154">CTN</tspan><tspan font-size="16" x="-50.7021" y="-179">CTN</tspan></text><path d="M161.5 340.5C160.16 333.444 167.534 325.76 175.332 326.5 198.305 322.252 209.163 328.883 235.827 326.5 262.491 324.117 268.22 327.919 291.668 326.5 300.704 327.672 304.569 331.889 305.5 340.5 309.569 363.583 304.583 383.988 305.5 396.5 304.812 403.412 297.497 409.956 291.668 410.5 276.165 416.011 255.825 403.747 233.5 410.5 211.175 417.253 193.411 405.672 175.332 410.5 165.631 410.034 161.207 404.114 161.5 396.5 157.589 377.253 165.561 359.967 161.5 340.5Z" stroke="#7F7F7F" stroke-width="1.33333" stroke-miterlimit="8" fill="none" fill-rule="evenodd"/><text font-family="Calibri,Calibri_MSFontService,sans-serif" font-weight="400" font-size="24" transform="translate(214.245 361)">SVC<tspan font-size="24" x="6.98" y="29">L</tspan><tspan font-size="24" x="17.1467" y="29">B</tspan></text><path d="M624.5 148.5C623.15 141.444 630.576 133.76 638.428 134.5 661.56 130.252 672.494 136.883 699.343 134.5 726.192 132.117 731.961 135.919 755.572 134.5 764.67 135.672 768.562 139.889 769.5 148.5 773.598 171.583 768.576 191.988 769.5 204.5 768.807 211.412 761.441 217.956 755.572 218.5 739.961 224.011 719.48 211.747 697 218.5 674.52 225.253 656.633 213.672 638.428 218.5 628.66 218.034 624.205 212.114 624.5 204.5 620.562 185.253 628.589 167.967 624.5 148.5Z" stroke="#7F7F7F" stroke-width="1.33333" stroke-miterlimit="8" fill="none" fill-rule="evenodd"/><text font-family="Calibri,Calibri_MSFontService,sans-serif" font-weight="400" font-size="24" transform="translate(677.926 169)">SVC<tspan font-size="24" x="2.98004" y="29">CIP</tspan></text><path d="M838.5 350.334C837.15 343.362 844.576 335.769 852.428 336.5 875.56 332.302 886.494 338.854 913.343 336.5 940.192 334.146 945.961 337.902 969.572 336.5 978.67 337.658 982.562 341.825 983.5 350.334 987.598 373.141 982.576 393.304 983.5 405.666 982.807 412.496 975.441 418.963 969.572 419.5 953.961 424.945 933.48 412.828 911 419.5 888.52 426.172 870.633 414.73 852.428 419.5 842.66 419.04 838.205 413.19 838.5 405.666 834.562 386.649 842.589 369.568 838.5 350.334Z" stroke="#7F7F7F" stroke-width="1.33333" stroke-miterlimit="8" fill="none" fill-rule="evenodd"/><text font-family="Calibri,Calibri_MSFontService,sans-serif" font-weight="400" font-size="24" transform="translate(891.692 370)">SVC<tspan font-size="24" x="2.97998" y="29">CIP</tspan></text><path d="M0 0 0.000104987 18.3748" stroke="#FF0000" stroke-width="0.666667" stroke-miterlimit="8" fill="none" fill-rule="evenodd" transform="matrix(-1 0 0 1 233.5 308.5)"/><path d="M0 0 0.416378 23.7678" stroke="#FF0000" stroke-width="0.666667" stroke-miterlimit="8" fill="none" fill-rule="evenodd" transform="matrix(-1 0 0 1 910.916 419.5)"/><path d="M769.5 176.5 785.379 176.5" stroke="#FF0000" stroke-width="0.666667" stroke-miterlimit="8" fill="none" fill-rule="evenodd"/><path d="M357.201 541.067C354.888 532.211 359.426 520.613 370.323 516.363 383.969 506.662 415.552 502.652 434.158 510.72 448.819 492.531 479.817 494.906 498.519 504.861 505.384 500.715 512.528 494.838 523.598 494.162 534.463 491.106 545.662 495.447 554.7 501.713 564.573 492.18 580.825 487.922 597.577 495.784 610.212 498.788 617.018 504.563 619.32 511.958 633.399 512.532 642.276 517.923 647.224 527.655 651.56 533.701 650.751 539.083 645.975 544.675 655.144 551.1 659.492 561.614 655.099 570.7 653.415 582.036 637.428 589.491 612.359 593.481 612.608 602.379 605.497 605.856 597.059 613.001 581.89 619.312 560.297 618.674 544.967 615.364 541.44 626.267 524.761 629.382 507.742 636.189 486.936 641.323 461.673 635.778 453.007 623.478 428.265 628.187 385.889 625.522 371.702 610.919 355.123 609.885 340.878 609.106 335.953 596.943 331.306 591.629 335.353 583.821 343.592 578.078 332.72 574.384 327.276 564.981 327.462 558.724 328.092 545.588 342.046 542.427 356.92 541.521 357.003 541.38 357.093 541.214 357.201 541.067Z" fill="#4472C4" fill-rule="evenodd"/><path d="M357.201 541.067C353.691 532.298 360.774 521.159 370.323 516.363 382.695 510.657 413.138 500.819 434.158 510.72 448.496 492.95 476.116 499.233 498.519 504.861 501.588 498.177 514.61 493.722 523.598 494.162 534.187 491.383 549 494.616 554.7 501.713 562.731 495.037 579.318 490.554 597.577 495.784 610.675 498.513 616.515 506.698 619.32 511.958 632.971 512.656 645.083 518.648 647.224 527.655 649.429 534.241 649.234 538.803 645.975 544.675 657.872 552.86 656.92 563.716 655.099 570.7 649.713 579.892 633.729 591.31 612.359 593.481 613.303 600.44 608.311 608.759 597.059 613.001 583.768 620.427 564.05 621.956 544.967 615.364 535.572 626.266 526.452 638.326 507.742 636.189 486.771 639.651 465.578 638.822 453.007 623.478 425.472 632.754 387.304 621.355 371.702 610.919 354.839 611.089 338.949 606.473 335.953 596.943 331.916 590.689 335.999 582.869 343.592 578.078 330.583 572.719 325.888 566.24 327.462 558.724 329.509 551.124 341.85 541.304 356.92 541.521 357.053 541.363 357.115 541.206 357.201 541.067Z" stroke="#2F528F" stroke-width="1.33333" stroke-miterlimit="8" fill="none" fill-rule="evenodd"/><path d="M363.241 580.151C356.642 581.493 349.665 581.089 343.95 577.512M380.262 609.022C378.05 610.004 374.574 609.361 371.824 610.283M452.992 622.895C451.319 621.094 449.264 618.448 447.905 617.135M547.039 608.532C546.838 610.736 546.231 612.262 545.006 614.851M587.418 569.482C603.856 574.928 611.558 581.627 612.176 593.103M645.823 544.325C643.126 547.913 640.057 550.543 634.795 553.183M619.366 511.461C619.788 512.925 619.969 514.194 619.944 515.645M548.951 506.582C550.586 504.931 552.586 503.498 554.601 501.246M496.12 509.124C497.176 507.513 497.577 506.28 498.854 504.523M434.12 510.686C438.327 512.583 440.563 512.882 444.021 515.149M358.93 545.765C358.235 544.056 357.289 542.88 357.201 541.067" stroke="#2F528F" stroke-width="1.33333" stroke-miterlimit="8" fill="none" fill-rule="evenodd"/><path d="M6.66667-0.333333 20.625-0.333333 40.6885-0.270832 50.1875-0.270833 59.3762-0.270833 68.0024-0.208325 68-0.208333 76.1264-0.208333 83.5653-0.145822 83.5625-0.145833 90.2517-0.145833 96.191-0.0833149 101.192-0.0208073 101.188-0.0208333 105.191-0.0208333 108.194 0.041739 108.188 0.0416667 110.079 0.0416667 110.721 0.105821 111.346 0.168321 111.312 0.166667 113.191 0.166667 116.194 0.229239 116.187 0.229167 120.19 0.229167 125.254 0.291692 125.25 0.291667 131.127 0.291667 137.816 0.354181 137.812 0.354167 145.314 0.354167 153.378 0.416677 153.375 0.416667 162.062 0.416667 171.187 0.416667 180.75 0.416667 200.751 0.479168 214.708 0.479167 214.708 1.14583 200.749 1.14583 180.75 1.08333 171.187 1.08333 162.062 1.08333 153.374 1.08333 145.31 1.02082 145.312 1.02083 137.811 1.02083 131.122 0.958319 131.125 0.958333 125.248 0.958333 120.183 0.895808 120.187 0.895833 116.184 0.895833 113.181 0.833261 113.187 0.833333 111.296 0.833333 110.654 0.769179 110.029 0.706679 110.062 0.708333 108.184 0.708333 105.181 0.645761 105.188 0.645833 101.185 0.645833 96.184 0.583315 90.2465 0.520815 90.25 0.520833 83.5611 0.520833 76.1222 0.458322 76.125 0.458333 67.9988 0.458333 59.3726 0.395825 59.375 0.395833 50.1875 0.395833 40.6865 0.395832 20.625 0.333333 6.66667 0.333333ZM8 4 0 0 8-4ZM213.375-3.1875 221.375 0.8125 213.375 4.8125Z" fill="#4472C4" transform="matrix(1 0 0 -1 403.5 177.303)"/><path d="M6.47955 1.69668 8.73485 2.58462 12.9842 6.13632 17.1403 10.9221 21.0979 16.827 24.8606 23.7253 28.4945 31.6198 31.8766 40.3256 34.9446 49.7798 37.6982 59.9183 40.2014 70.6193 42.2664 81.8206 43.9559 93.3341 45.1448 105.16 45.8956 117.173 46.2082 129.305 46.4583 141.431 46.4577 141.417 47.2077 153.417 47.2065 153.402 48.4565 165.215 48.4548 165.202 50.1423 176.702 50.1403 176.69 52.2028 187.877 52.2 187.863 54.6375 198.551 54.6337 198.536 57.4462 208.661 57.4421 208.647 60.5046 218.085 60.499 218.069 63.8115 226.756 63.8024 226.735 67.4274 234.547 67.4182 234.529 71.1682 241.466 71.1496 241.436 75.1496 247.248 75.1283 247.221 79.1908 251.971 79.1513 251.932 83.3388 255.432 83.2471 255.377 85.4522 256.245 85.2079 256.866 82.9527 255.978 78.7023 252.425 74.6103 247.641 70.5903 241.799 66.8269 234.837 63.1927 227.005 59.873 218.298 56.8057 208.846 53.9892 198.707 51.5485 188.005 49.4836 176.804 47.7942 165.292 46.5428 153.465 45.7919 141.451 45.5417 129.319 45.5418 129.321 45.2293 117.196 45.2298 117.208 44.4798 105.208 44.4808 105.221 43.2933 93.4083 43.2952 93.4234 41.6077 81.9234 41.6097 81.9354 39.5472 70.7479 39.5504 70.7634 37.0504 60.0759 37.0533 60.0874 34.3033 49.9624 34.3079 49.9779 31.2454 40.5404 31.2518 40.5582 27.8768 31.8707 27.8847 31.8894 24.2597 24.0144 24.2699 24.0346 20.5199 17.1596 20.5356 17.1856 16.5981 11.3106 16.6233 11.3436 12.4983 6.59356 12.5362 6.63076 8.34873 3.13076 8.44039 3.18516 6.23532 2.317ZM6.42482 6.22268 0 0 8.83303-1.40625ZM85.2627 252.34 91.6875 258.562 82.8545 259.969Z" fill="#4472C4" transform="matrix(1.83697e-16 1 1 -1.83697e-16 233.5 410.5)"/><path d="M914.326 329.578 916.016 327.315 919.33 325.02 923.245 323.063 927.598 321.549 932.329 320.539 937.103 320.225 941.853 319.913 941.805 319.919 946.493 318.919 946.453 318.931 950.766 317.431 950.726 317.447 954.601 315.51 954.56 315.534 957.81 313.284 957.733 313.359 959.356 311.184 959.89 311.582 958.235 313.801 954.92 316.096 951.005 318.053 946.652 319.567 941.921 320.577 937.147 320.891 932.397 321.203 932.445 321.196 927.757 322.196 927.797 322.185 923.484 323.685 923.524 323.669 919.649 325.606 919.69 325.582 916.44 327.832 916.517 327.757 914.86 329.977ZM918.755 330.452 911.5 335.683 911.668 326.74ZM955.465 310.684 962.75 305.495 962.53 314.437Z" fill="#4472C4"/><path d="M1155.5 369.26C1153.43 373.405 1172.66 377.13 1190.5 378.02 1210.65 379.055 1225.47 373.305 1225.5 369.26 1225.95 391.399 1220.48 411.362 1225.5 428.531 1230.52 445.699 1225.13 468.669 1225.5 492.74 1228.96 495.062 1206.86 501.722 1190.5 501.5 1172.48 501.567 1155.05 497.16 1155.5 492.74 1154.74 476.222 1160.16 446.925 1155.5 433.47 1150.84 420.014 1156.4 385.095 1155.5 369.26Z" fill="#00B050" fill-rule="evenodd"/><path d="M1155.5 369.26C1156.24 363.543 1171.49 364.381 1190.5 360.5 1209.57 360.477 1224.22 364.499 1225.5 369.26 1223.89 377.196 1210.27 379.04 1190.5 378.02 1170.8 378.284 1155.31 373.831 1155.5 369.26Z" fill="#66D096" fill-rule="evenodd"/><path d="M1225.5 369.26C1227.71 371.657 1208.98 373.291 1190.5 378.02 1171.38 378.106 1155.5 373.819 1155.5 369.26 1154.72 364.146 1171.57 358.447 1190.5 360.5 1209.55 361.497 1225.95 364.626 1225.5 369.26 1229.49 395.004 1221.46 400.646 1225.5 429.765 1229.54 458.884 1218.72 462.003 1225.5 492.74 1222.37 497.505 1212.46 500.974 1190.5 501.5 1171.51 501.781 1154.42 497.907 1155.5 492.74 1150.42 472.339 1157.03 449.96 1155.5 431 1153.97 412.04 1162.37 384.204 1155.5 369.26" stroke="#00B050" stroke-width="1.33333" stroke-miterlimit="8" fill="none" fill-rule="evenodd"/><path d="M1118.5 545.5C1118.44 538.111 1122.86 532.015 1132.33 531.5 1143.68 526.912 1162.55 536.18 1188.17 531.5 1213.8 526.821 1220.63 538.096 1248.67 531.5 1254.05 531.146 1261.92 537.756 1262.5 545.5 1269.12 569.53 1261.89 575.942 1262.5 601.5 1263.13 610.379 1254.86 614.227 1248.67 615.5 1226.35 622.68 1212.98 608.232 1188.17 615.5 1163.37 622.768 1158.68 609.361 1132.33 615.5 1124.08 616.225 1117.22 608.787 1118.5 601.5 1113.39 575.799 1124.13 567.544 1118.5 545.5Z" stroke="#7F7F7F" stroke-width="1.33333" stroke-miterlimit="8" fill="none" fill-rule="evenodd"/><text font-family="Calibri,Calibri_MSFontService,sans-serif" font-weight="400" font-size="24" transform="translate(1169.47 580)">PV<tspan font-size="24" x="25.6666" y="0">C</tspan><tspan font-size="24" x="7.33337" y="-233">S</tspan>C</text><path d="M1118.35 573.352 1087.5 572.5" stroke="#FF0000" stroke-width="0.666667" stroke-miterlimit="8" fill="none" fill-rule="evenodd"/><path d="M1191.01 532.019 1190.5 501.5" stroke="#FF0000" stroke-width="0.666667" stroke-miterlimit="8" fill="none" fill-rule="evenodd"/></g></svg>